<svg xmlns="http://www.w3.org/2000/svg" width="108" height="19" viewBox="0 0 108 19">
  <path fill="#F9F9F9" d="M42.4510618,47.712 C42.1790604,48.0000014 41.8110641,48.144 41.3470618,48.144 C40.8830595,48.144 40.5110632,47.9960015 40.2310618,47.7 C39.9510604,47.4039985 39.8110618,47.0080025 39.8110618,46.512 L39.8110618,33.72 L37.1230618,33.72 C36.6750596,33.72 36.3110632,33.5960012 36.0310618,33.348 C35.7510604,33.0999988 35.6110618,32.7600022 35.6110618,32.328 C35.6110618,31.8959978 35.7510604,31.5520013 36.0310618,31.296 C36.3110632,31.0399987 36.6750596,30.912 37.1230618,30.912 L45.5470618,30.912 C45.995064,30.912 46.3630604,31.0399987 46.6510618,31.296 C46.9390632,31.5520013 47.0830618,31.8959978 47.0830618,32.328 C47.0830618,32.7600022 46.9390632,33.0999988 46.6510618,33.348 C46.3630604,33.5960012 45.995064,33.72 45.5470618,33.72 L42.8590618,33.72 L42.8590618,46.512 C42.8590618,47.0080025 42.7230632,47.4079985 42.4510618,47.712 Z M51.146187,48.144 C50.6981848,48.144 50.3461883,48.0280012 50.090187,47.796 C49.8341857,47.5639988 49.706187,47.2640018 49.706187,46.896 C49.706187,46.4479978 49.8981851,45.720005 50.282187,44.712 L54.818187,32.592 C55.2981894,31.2799934 56.0501819,30.624 57.074187,30.624 C58.082192,30.624 58.8261846,31.2799934 59.306187,32.592 L63.962187,45.048 C64.2661885,45.9280044 64.418187,46.5439982 64.418187,46.896 C64.418187,47.2640018 64.2901883,47.5639988 64.034187,47.796 C63.7781857,48.0280012 63.4261892,48.144 62.978187,48.144 C62.5141847,48.144 62.1661882,48.0200012 61.934187,47.772 C61.7021858,47.5239988 61.4981879,47.1120029 61.322187,46.536 L60.626187,44.544 L53.498187,44.544 L52.826187,46.512 C52.618186,47.1360031 52.3941882,47.5639988 52.154187,47.796 C51.9141858,48.0280012 51.5781892,48.144 51.146187,48.144 Z M54.434187,41.736 L59.690187,41.736 L57.122187,34.128 L57.074187,34.128 L54.434187,41.736 Z M71.6253122,48 C71.2253102,48 70.8813136,47.8560014 70.5933122,47.568 C70.3053108,47.2799986 70.1613122,46.9280021 70.1613122,46.512 L70.1613122,32.4 C70.1613122,31.8879974 70.2973108,31.4880014 70.5693122,31.2 C70.8413136,30.9119986 71.2093099,30.768 71.6733122,30.768 C72.1373145,30.768 72.5093108,30.9159985 72.7893122,31.212 C73.0693136,31.5080015 73.2093122,31.9039975 73.2093122,32.4 L73.2093122,45.192 L77.5533122,45.192 C77.9853144,45.192 78.3413108,45.3159988 78.6213122,45.564 C78.9013136,45.8120012 79.0413122,46.1519978 79.0413122,46.584 C79.0413122,47.0000021 78.9013136,47.3399987 78.6213122,47.604 C78.3413108,47.8680013 77.9933143,48 77.5773122,48 L71.6253122,48 Z M87.1604374,47.712 C86.888436,48.0000014 86.5204397,48.144 86.0564374,48.144 C85.5924351,48.144 85.2244388,48.0000014 84.9524374,47.712 C84.680436,47.4239986 84.5444374,47.0240026 84.5444374,46.512 L84.5444374,32.4 C84.5444374,31.8879974 84.680436,31.4880014 84.9524374,31.2 C85.2244388,30.9119986 85.5924351,30.768 86.0564374,30.768 C86.5204397,30.768 86.892436,30.9159985 87.1724374,31.212 C87.4524388,31.5080015 87.5924374,31.9039975 87.5924374,32.4 L87.5924374,37.824 L93.6884374,31.752 C94.2964404,31.0959967 94.8484349,30.768 95.3444374,30.768 C95.7284393,30.768 96.0724359,30.9119986 96.3764374,31.2 C96.6804389,31.4880014 96.8324374,31.8159982 96.8324374,32.184 C96.8324374,32.6160022 96.5124406,33.135997 95.8724374,33.744 L90.4724374,38.904 L96.9764374,45.528 C97.3284392,45.8960018 97.5044374,46.279998 97.5044374,46.68 C97.5044374,47.0960021 97.3604388,47.4439986 97.0724374,47.724 C96.784436,48.0040014 96.4164396,48.144 95.9684374,48.144 C95.696436,48.144 95.4324387,48.0720007 95.1764374,47.928 C94.9204361,47.7839993 94.5604397,47.4480026 94.0964374,46.92 L87.5924374,40.152 L87.5924374,46.512 C87.5924374,47.0080025 87.4484388,47.4079985 87.1604374,47.712 Z M105.695563,47.712 C105.423561,48.0000014 105.055565,48.144 104.591563,48.144 C104.12756,48.144 103.759564,48.0000014 103.487563,47.712 C103.215561,47.4239986 103.079563,47.0240026 103.079563,46.512 L103.079563,32.4 C103.079563,31.8879974 103.215561,31.4880014 103.487563,31.2 C103.759564,30.9119986 104.12756,30.768 104.591563,30.768 C105.055565,30.768 105.427561,30.9159985 105.707563,31.212 C105.987564,31.5080015 106.127563,31.9039975 106.127563,32.4 L106.127563,46.512 C106.127563,47.0080025 105.983564,47.4079985 105.695563,47.712 Z M114.462688,48 C114.014686,48 113.646689,47.8600014 113.358688,47.58 C113.070686,47.2999986 112.926688,46.9360022 112.926688,46.488 L112.926688,32.4 C112.926688,31.9679978 113.070686,31.6120014 113.358688,31.332 C113.646689,31.0519986 114.014686,30.912 114.462688,30.912 L120.414688,30.912 C120.84669,30.912 121.202686,31.0439987 121.482688,31.308 C121.762689,31.5720013 121.902688,31.912 121.902688,32.328 C121.902688,32.7440021 121.762689,33.0799987 121.482688,33.336 C121.202686,33.5920013 120.84669,33.72 120.414688,33.72 L115.974688,33.72 L115.974688,38.016 L120.126688,38.016 C120.55869,38.016 120.914686,38.1439987 121.194688,38.4 C121.474689,38.6560013 121.614688,38.9999978 121.614688,39.432 C121.614688,39.8640022 121.478689,40.2079987 121.206688,40.464 C120.934686,40.7200013 120.57469,40.848 120.126688,40.848 L115.974688,40.848 L115.974688,45.192 L120.582688,45.192 C121.01469,45.192 121.370686,45.3159988 121.650688,45.564 C121.930689,45.8120012 122.070688,46.1519978 122.070688,46.584 C122.070688,47.0000021 121.930689,47.3399987 121.650688,47.604 C121.370686,47.8680013 121.02269,48 120.606688,48 L114.462688,48 Z M130.909813,47.712 C130.637812,48.0000014 130.269815,48.144 129.805813,48.144 C129.341811,48.144 128.973814,48.0000014 128.701813,47.712 C128.429812,47.4239986 128.293813,47.0240026 128.293813,46.512 L128.293813,32.352 C128.293813,31.8719976 128.429812,31.4880014 128.701813,31.2 C128.973814,30.9119986 129.341811,30.768 129.805813,30.768 C130.349816,30.768 130.869811,31.071997 131.365813,31.68 L139.357813,42.456 L139.405813,42.456 L139.405813,32.4 C139.405813,31.9039975 139.541812,31.5080015 139.813813,31.212 C140.085814,30.9159985 140.453811,30.768 140.917813,30.768 C141.381815,30.768 141.753812,30.9159985 142.033813,31.212 C142.313814,31.5080015 142.453813,31.9039975 142.453813,32.4 L142.453813,46.536 C142.453813,47.0320025 142.317814,47.4239986 142.045813,47.712 C141.773812,48.0000014 141.405815,48.144 140.941813,48.144 C140.38181,48.144 139.837816,47.7840036 139.309813,47.064 L131.389813,36.408 L131.341813,36.408 L131.341813,46.512 C131.341813,47.0080025 131.197814,47.4079985 130.909813,47.712 Z" transform="translate(-35 -30)"/>
</svg>
